<svg width="328" height="237" viewBox="0 0 328 237" fill="none" xmlns="http://www.w3.org/2000/svg">
<path d="M71 40.4999C151.5 -18.7117 245.121 -21.7096 285.5 98.0002C299.479 139.441 353.166 181.288 312.666 219.001C290.86 239.306 221.5 236 159 236C102.443 235.36 45.1557 237.944 23.0004 236C-2.16678 233.792 -0.733018 238 1.00019 147.5C2.7334 57.0002 32.7076 68.6658 71 40.4999Z" fill="#EFF5EE"/>
<rect x="63" y="35" width="182" height="89" rx="16" fill="#4E4E4E"/>
<rect width="11.899" height="37.1459" rx="5.9495" transform="matrix(0.968111 0.250522 -0.252517 0.967592 43.751 189.958)" fill="#EAD0A9"/>
<rect width="11.8988" height="37.1465" rx="5.94941" transform="matrix(0.966199 -0.257798 0.259843 0.965651 62.6738 193.129)" fill="#EAD0A9"/>
<rect x="23" y="123.691" width="22.2174" height="70.3212" rx="11.1087" fill="#597081"/>
<rect x="23" y="175.049" width="73" height="21.3334" rx="10.6667" fill="url(#paint0_linear)"/>
<rect width="11.899" height="37.1459" rx="5.9495" transform="matrix(-0.968111 0.250522 0.252517 0.967592 264.249 189.958)" fill="#EAD0A9"/>
<rect width="11.8988" height="37.1465" rx="5.94941" transform="matrix(-0.966199 -0.257798 -0.259843 0.965651 245.326 193.129)" fill="#EAD0A9"/>
<rect width="22.2174" height="70.3212" rx="11.1087" transform="matrix(-1 0 0 1 285 123.691)" fill="#597081"/>
<rect width="73" height="21.3334" rx="10.6667" transform="matrix(-1 0 0 1 285 175.049)" fill="url(#paint1_linear)"/>
<rect x="84" y="139" width="142" height="23.1792" rx="11.5896" fill="#597081"/>
<rect x="147" y="162" width="16" height="67" fill="#EAD0A9"/>
<rect x="132.194" y="222.273" width="44.7515" height="7.72642" rx="3.86321" fill="#EAD0A9"/>
<rect x="79" y="61" width="94" height="10" rx="5" fill="#EDEDED"/>
<rect x="184" y="61" width="46" height="10" rx="5" fill="#EDEDED"/>
<rect x="79" y="88" width="94" height="10" rx="5" fill="#EDEDED"/>
<rect x="184" y="88" width="46" height="10" rx="5" fill="#EDEDED"/>
<defs>
<linearGradient id="paint0_linear" x1="59.5" y1="175.049" x2="59.5" y2="196.383" gradientUnits="userSpaceOnUse">
<stop stop-color="#597081" stop-opacity="0.76"/>
<stop offset="1" stop-color="#597081"/>
</linearGradient>
<linearGradient id="paint1_linear" x1="36.5" y1="0" x2="36.5" y2="21.3334" gradientUnits="userSpaceOnUse">
<stop stop-color="#597081" stop-opacity="0.76"/>
<stop offset="1" stop-color="#597081"/>
</linearGradient>
</defs>
</svg>
