<svg width="29" height="26" viewBox="0 0 29 26" fill="none" xmlns="http://www.w3.org/2000/svg">
<path d="M17 0H9C4.02944 0 0 4.02944 0 9V17C0 21.9706 4.02944 26 9 26H17C21.9706 26 26 21.9706 26 17V9C26 4.02944 21.9706 0 17 0Z" fill="#E98074"/>
<path d="M28.3364 19.0824C29.2501 20.1497 28.8075 21.8016 27.4826 22.2691L19.082 25.2331C17.5645 25.7685 16.0682 24.3838 16.4847 22.8294L19.0921 13.0982C19.5086 11.5438 21.4969 11.0927 22.5433 12.3152L28.3364 19.0824Z" fill="#E98074"/>
<path d="M6 10.5H17.5" stroke="white" stroke-width="2"/>
<path d="M9 16H20.5" stroke="white" stroke-width="2"/>
</svg>
