<svg width="153" height="37" viewBox="0 0 153 37" fill="none" xmlns="http://www.w3.org/2000/svg">
<path d="M39.504 26.216C38.496 26.216 37.592 26.048 36.792 25.712C35.992 25.36 35.36 24.88 34.896 24.272C34.432 23.648 34.176 22.936 34.128 22.136H36.384C36.448 22.792 36.752 23.328 37.296 23.744C37.856 24.16 38.584 24.368 39.48 24.368C40.312 24.368 40.968 24.184 41.448 23.816C41.928 23.448 42.168 22.984 42.168 22.424C42.168 21.848 41.912 21.424 41.4 21.152C40.888 20.864 40.096 20.584 39.024 20.312C38.048 20.056 37.248 19.8 36.624 19.544C36.016 19.272 35.488 18.88 35.04 18.368C34.608 17.84 34.392 17.152 34.392 16.304C34.392 15.632 34.592 15.016 34.992 14.456C35.392 13.896 35.96 13.456 36.696 13.136C37.432 12.8 38.272 12.632 39.216 12.632C40.672 12.632 41.848 13 42.744 13.736C43.64 14.472 44.12 15.48 44.184 16.76H42C41.952 16.072 41.672 15.52 41.16 15.104C40.664 14.688 39.992 14.48 39.144 14.48C38.36 14.48 37.736 14.648 37.272 14.984C36.808 15.32 36.576 15.76 36.576 16.304C36.576 16.736 36.712 17.096 36.984 17.384C37.272 17.656 37.624 17.88 38.04 18.056C38.472 18.216 39.064 18.4 39.816 18.608C40.76 18.864 41.528 19.12 42.12 19.376C42.712 19.616 43.216 19.984 43.632 20.48C44.064 20.976 44.288 21.624 44.304 22.424C44.304 23.144 44.104 23.792 43.704 24.368C43.304 24.944 42.736 25.4 42 25.736C41.28 26.056 40.448 26.216 39.504 26.216ZM63.2031 12.608C64.2271 12.608 65.1391 12.824 65.9391 13.256C66.7391 13.672 67.3711 14.304 67.8351 15.152C68.2991 16 68.5311 17.032 68.5311 18.248V26H66.3711V18.56C66.3711 17.248 66.0431 16.248 65.3871 15.56C64.7471 14.856 63.8751 14.504 62.7711 14.504C61.6351 14.504 60.7311 14.872 60.0591 15.608C59.3871 16.328 59.0511 17.376 59.0511 18.752V26H56.8911V18.56C56.8911 17.248 56.5631 16.248 55.9071 15.56C55.2671 14.856 54.3951 14.504 53.2911 14.504C52.1551 14.504 51.2511 14.872 50.5791 15.608C49.9071 16.328 49.5711 17.376 49.5711 18.752V26H47.3871V12.848H49.5711V14.744C50.0031 14.056 50.5791 13.528 51.2991 13.16C52.0351 12.792 52.8431 12.608 53.7231 12.608C54.8271 12.608 55.8031 12.856 56.6511 13.352C57.4991 13.848 58.1311 14.576 58.5471 15.536C58.9151 14.608 59.5231 13.888 60.3711 13.376C61.2191 12.864 62.1631 12.608 63.2031 12.608ZM71.2976 19.376C71.2976 18.032 71.5696 16.856 72.1136 15.848C72.6576 14.824 73.4016 14.032 74.3456 13.472C75.3056 12.912 76.3696 12.632 77.5376 12.632C78.6896 12.632 79.6896 12.88 80.5376 13.376C81.3856 13.872 82.0176 14.496 82.4336 15.248V12.848H84.6416V26H82.4336V23.552C82.0016 24.32 81.3536 24.96 80.4896 25.472C79.6416 25.968 78.6496 26.216 77.5136 26.216C76.3456 26.216 75.2896 25.928 74.3456 25.352C73.4016 24.776 72.6576 23.968 72.1136 22.928C71.5696 21.888 71.2976 20.704 71.2976 19.376ZM82.4336 19.4C82.4336 18.408 82.2336 17.544 81.8336 16.808C81.4336 16.072 80.8896 15.512 80.2016 15.128C79.5296 14.728 78.7856 14.528 77.9696 14.528C77.1536 14.528 76.4096 14.72 75.7376 15.104C75.0656 15.488 74.5296 16.048 74.1296 16.784C73.7296 17.52 73.5296 18.384 73.5296 19.376C73.5296 20.384 73.7296 21.264 74.1296 22.016C74.5296 22.752 75.0656 23.32 75.7376 23.72C76.4096 24.104 77.1536 24.296 77.9696 24.296C78.7856 24.296 79.5296 24.104 80.2016 23.72C80.8896 23.32 81.4336 22.752 81.8336 22.016C82.2336 21.264 82.4336 20.392 82.4336 19.4ZM90.5164 8.24V26H88.3324V8.24H90.5164ZM96.4226 8.24V26H94.2386V8.24H96.4226ZM102.809 14.648V22.4C102.809 23.04 102.945 23.496 103.217 23.768C103.489 24.024 103.961 24.152 104.633 24.152H106.241V26H104.273C103.057 26 102.145 25.72 101.537 25.16C100.929 24.6 100.625 23.68 100.625 22.4V14.648H98.9209V12.848H100.625V9.536H102.809V12.848H106.241V14.648H102.809ZM108.071 19.376C108.071 18.032 108.343 16.856 108.887 15.848C109.431 14.824 110.175 14.032 111.119 13.472C112.079 12.912 113.143 12.632 114.311 12.632C115.463 12.632 116.463 12.88 117.311 13.376C118.159 13.872 118.791 14.496 119.207 15.248V12.848H121.415V26H119.207V23.552C118.775 24.32 118.127 24.96 117.263 25.472C116.415 25.968 115.423 26.216 114.287 26.216C113.119 26.216 112.063 25.928 111.119 25.352C110.175 24.776 109.431 23.968 108.887 22.928C108.343 21.888 108.071 20.704 108.071 19.376ZM119.207 19.4C119.207 18.408 119.007 17.544 118.607 16.808C118.207 16.072 117.663 15.512 116.975 15.128C116.303 14.728 115.559 14.528 114.743 14.528C113.927 14.528 113.183 14.72 112.511 15.104C111.839 15.488 111.303 16.048 110.903 16.784C110.503 17.52 110.303 18.384 110.303 19.376C110.303 20.384 110.503 21.264 110.903 22.016C111.303 22.752 111.839 23.32 112.511 23.72C113.183 24.104 113.927 24.296 114.743 24.296C115.559 24.296 116.303 24.104 116.975 23.72C117.663 23.32 118.207 22.752 118.607 22.016C119.007 21.264 119.207 20.392 119.207 19.4ZM127.29 8.24V26H125.106V8.24H127.29ZM138.356 26L133.196 20.192V26H131.012V8.24H133.196V18.68L138.26 12.848H141.308L135.116 19.4L141.332 26H138.356ZM148.02 26.216C147.012 26.216 146.108 26.048 145.308 25.712C144.508 25.36 143.876 24.88 143.412 24.272C142.948 23.648 142.692 22.936 142.644 22.136H144.9C144.964 22.792 145.268 23.328 145.812 23.744C146.372 24.16 147.1 24.368 147.996 24.368C148.828 24.368 149.484 24.184 149.964 23.816C150.444 23.448 150.684 22.984 150.684 22.424C150.684 21.848 150.428 21.424 149.916 21.152C149.404 20.864 148.612 20.584 147.54 20.312C146.564 20.056 145.764 19.8 145.14 19.544C144.532 19.272 144.004 18.88 143.556 18.368C143.124 17.84 142.908 17.152 142.908 16.304C142.908 15.632 143.108 15.016 143.508 14.456C143.908 13.896 144.476 13.456 145.212 13.136C145.948 12.8 146.788 12.632 147.732 12.632C149.188 12.632 150.364 13 151.26 13.736C152.156 14.472 152.636 15.48 152.7 16.76H150.516C150.468 16.072 150.188 15.52 149.676 15.104C149.18 14.688 148.508 14.48 147.66 14.48C146.876 14.48 146.252 14.648 145.788 14.984C145.324 15.32 145.092 15.76 145.092 16.304C145.092 16.736 145.228 17.096 145.5 17.384C145.788 17.656 146.14 17.88 146.556 18.056C146.988 18.216 147.58 18.4 148.332 18.608C149.276 18.864 150.044 19.12 150.636 19.376C151.228 19.616 151.732 19.984 152.148 20.48C152.58 20.976 152.804 21.624 152.82 22.424C152.82 23.144 152.62 23.792 152.22 24.368C151.82 24.944 151.252 25.4 150.516 25.736C149.796 26.056 148.964 26.216 148.02 26.216Z" fill="#597081"/>
<rect y="5" width="26" height="26" rx="9" fill="#F56F60"/>
<path d="M28.3365 24.0826C29.2502 25.1499 28.8076 26.8018 27.4827 27.2693L19.0821 30.2333C17.5646 30.7687 16.0683 29.384 16.4848 27.8296L19.0922 18.0984C19.5087 16.544 21.497 16.0929 22.5434 17.3154L28.3365 24.0826Z" fill="#F56F60"/>
<path d="M6 15.5H17.5" stroke="white" stroke-width="2"/>
<path d="M9 21H20.5" stroke="white" stroke-width="2"/>
</svg>
